<?xml version="1.0" encoding="utf-8"?>
<!-- Generator: Adobe Illustrator 19.0.0, SVG Export Plug-In . SVG Version: 6.00 Build 0)  -->
<svg version="1.1" id="Layer_1" xmlns="http://www.w3.org/2000/svg" xmlns:xlink="http://www.w3.org/1999/xlink" x="0px" y="0px"
	 viewBox="0 0 96 96" style="enable-background:new 0 0 96 96;" xml:space="preserve">
<style type="text/css">
	.st0{fill:#333333;}
</style>
<g id="XMLID_2_">
	<path id="XMLID_4_" class="st0" d="M75.5,35.2c0,0.9-0.3,1.8-1,2.4L48.8,63.3L44,68.1c-0.7,0.7-1.5,1-2.4,1s-1.8-0.3-2.4-1
		l-4.8-4.8L21.5,50.4c-0.7-0.7-1-1.5-1-2.4s0.3-1.8,1-2.4l4.8-4.8c0.7-0.7,1.5-1,2.4-1s1.8,0.3,2.4,1l10.4,10.5l23.3-23.3
		c0.7-0.7,1.5-1,2.4-1c0.9,0,1.8,0.3,2.4,1l4.8,4.8C75.2,33.4,75.5,34.2,75.5,35.2z"/>
</g>
</svg>
